<svg xmlns="http://www.w3.org/2000/svg" width="905" height="600"><rect width="905" height="600" x="0" y="0" fill="#ffffff" id="background"/><g id="series"><g transform="translate(0,0)"><g transform="translate(50,30)" clip-path="url(#serieClipPath)"><g id="axis"><g transform="translate(0,520)" fill="none" font-size="10" font-family="sans-serif" text-anchor="middle"><path class="domain" stroke="currentColor" d="M0,6V0H705V6"/><g class="tick" opacity="1" transform="translate(0,0)"><line stroke="currentColor" y2="6"/><text fill="currentColor" y="9" dy="0.71em">0</text></g><g class="tick" opacity="1" transform="translate(64,0)"><line stroke="currentColor" y2="6"/><text fill="currentColor" y="9" dy="0.71em">5,000</text></g><g class="tick" opacity="1" transform="translate(128,0)"><line stroke="currentColor" y2="6"/><text fill="currentColor" y="9" dy="0.71em">10,000</text></g><g class="tick" opacity="1" transform="translate(192,0)"><line stroke="currentColor" y2="6"/><text fill="currentColor" y="9" dy="0.71em">15,000</text></g><g class="tick" opacity="1" transform="translate(256,0)"><line stroke="currentColor" y2="6"/><text fill="currentColor" y="9" dy="0.71em">20,000</text></g><g class="tick" opacity="1" transform="translate(320,0)"><line stroke="currentColor" y2="6"/><text fill="currentColor" y="9" dy="0.71em">25,000</text></g><g class="tick" opacity="1" transform="translate(385,0)"><line stroke="currentColor" y2="6"/><text fill="currentColor" y="9" dy="0.71em">30,000</text></g><g class="tick" opacity="1" transform="translate(449,0)"><line stroke="currentColor" y2="6"/><text fill="currentColor" y="9" dy="0.71em">35,000</text></g><g class="tick" opacity="1" transform="translate(513,0)"><line stroke="currentColor" y2="6"/><text fill="currentColor" y="9" dy="0.71em">40,000</text></g><g class="tick" opacity="1" transform="translate(577,0)"><line stroke="currentColor" y2="6"/><text fill="currentColor" y="9" dy="0.71em">45,000</text></g><g class="tick" opacity="1" transform="translate(641,0)"><line stroke="currentColor" y2="6"/><text fill="currentColor" y="9" dy="0.71em">50,000</text></g><g class="tick" opacity="1" transform="translate(705,0)"><line stroke="currentColor" y2="6"/><text fill="currentColor" y="9" dy="0.71em">55,000</text></g><text x="705" dy="-5" text-anchor="end" style="font-family: Arial, sans-serif; font-size: 12px; fill: rgb(123, 123, 123); font-weight: bold;">Distancia (m)</text></g><g fill="none" font-size="10" font-family="sans-serif" text-anchor="end"><path class="domain" stroke="currentColor" d="M-6,520H0V0H-6"/><g class="tick" opacity="1" transform="translate(0,520)"><line stroke="currentColor" x2="-6"/><text fill="currentColor" x="-9" dy="0.32em">0</text></g><g class="tick" opacity="1" transform="translate(0,477)"><line stroke="currentColor" x2="-6"/><text fill="currentColor" x="-9" dy="0.32em">100</text></g><g class="tick" opacity="1" transform="translate(0,433)"><line stroke="currentColor" x2="-6"/><text fill="currentColor" x="-9" dy="0.32em">200</text></g><g class="tick" opacity="1" transform="translate(0,390)"><line stroke="currentColor" x2="-6"/><text fill="currentColor" x="-9" dy="0.32em">300</text></g><g class="tick" opacity="1" transform="translate(0,347)"><line stroke="currentColor" x2="-6"/><text fill="currentColor" x="-9" dy="0.32em">400</text></g><g class="tick" opacity="1" transform="translate(0,303)"><line stroke="currentColor" x2="-6"/><text fill="currentColor" x="-9" dy="0.32em">500</text></g><g class="tick" opacity="1" transform="translate(0,260)"><line stroke="currentColor" x2="-6"/><text fill="currentColor" x="-9" dy="0.32em">600</text></g><g class="tick" opacity="1" transform="translate(0,217)"><line stroke="currentColor" x2="-6"/><text fill="currentColor" x="-9" dy="0.32em">700</text></g><g class="tick" opacity="1" transform="translate(0,173)"><line stroke="currentColor" x2="-6"/><text fill="currentColor" x="-9" dy="0.32em">800</text></g><g class="tick" opacity="1" transform="translate(0,130)"><line stroke="currentColor" x2="-6"/><text fill="currentColor" x="-9" dy="0.32em">900</text></g><g class="tick" opacity="1" transform="translate(0,87)"><line stroke="currentColor" x2="-6"/><text fill="currentColor" x="-9" dy="0.32em">1,000</text></g><g class="tick" opacity="1" transform="translate(0,43)"><line stroke="currentColor" x2="-6"/><text fill="currentColor" x="-9" dy="0.32em">1,100</text></g><g class="tick" opacity="1" transform="translate(0,0)"><line stroke="currentColor" x2="-6"/><text fill="currentColor" x="-9" dy="0.32em">1,200</text></g><text x="4" text-anchor="start" dominant-baseline="hanging" style="font-family: Arial, sans-serif; font-size: 12px; fill: rgb(123, 123, 123); font-weight: bold;">Metros Por Minuto (m/mins)</text></g></g><g id="viz"><g><circle cx="11" cy="489" fill="#7ed321" r="7.5" stroke="white"/></g><g><circle cx="117" cy="362" fill="#417505" r="7.5" stroke="white"/></g><g><circle cx="3" cy="484" fill="#7ed321" r="7.5" stroke="white"/></g><g><circle cx="3" cy="484" fill="#7ed321" r="7.5" stroke="white"/></g><g><circle cx="117" cy="379" fill="#417505" r="7.5" stroke="white"/></g><g><circle cx="11" cy="483" fill="#7ed321" r="7.5" stroke="white"/></g><g><circle cx="449" cy="87" fill="#8b572a" r="7.5" stroke="white"/></g><g><circle cx="346" cy="299" fill="#8b572a" r="7.5" stroke="white"/></g><g><circle cx="38" cy="439" fill="#8b572a" r="7.5" stroke="white"/></g><g><circle cx="11" cy="483" fill="#7ed321" r="7.5" stroke="white"/></g><g><circle cx="77" cy="358" fill="#417505" r="7.5" stroke="white"/></g><g><circle cx="60" cy="335" fill="#417505" r="7.5" stroke="white"/></g><g><circle cx="11" cy="474" fill="#7ed321" r="7.5" stroke="white"/></g><g><circle cx="11" cy="479" fill="#7ed321" r="7.5" stroke="white"/></g><g><circle cx="60" cy="316" fill="#417505" r="7.5" stroke="white"/></g><g><circle cx="77" cy="358" fill="#417505" r="7.5" stroke="white"/></g><g><circle cx="11" cy="479" fill="#7ed321" r="7.5" stroke="white"/></g><g><circle cx="396" cy="158" fill="#8b572a" r="7.5" stroke="white"/></g><g><circle cx="33" cy="407" fill="#8b572a" r="7.5" stroke="white"/></g><g><circle cx="395" cy="329" fill="#8b572a" r="7.5" stroke="white"/></g><g><circle cx="11" cy="483" fill="#7ed321" r="7.5" stroke="white"/></g><g><circle cx="117" cy="368" fill="#417505" r="7.5" stroke="white"/></g><g><circle cx="3" cy="493" fill="#7ed321" r="7.5" stroke="white"/></g><g><circle cx="3" cy="493" fill="#7ed321" r="7.5" stroke="white"/></g><g><circle cx="117" cy="368" fill="#417505" r="7.5" stroke="white"/></g><g><circle cx="11" cy="483" fill="#7ed321" r="7.5" stroke="white"/></g><g><circle cx="14" cy="480" fill="#7ed321" r="7.5" stroke="white"/></g><g><circle cx="14" cy="483" fill="#7ed321" r="7.5" stroke="white"/></g><g><circle cx="449" cy="141" fill="#8b572a" r="7.5" stroke="white"/></g><g><circle cx="97" cy="326" fill="#8b572a" r="7.5" stroke="white"/></g><g><circle cx="112" cy="340" fill="#8b572a" r="7.5" stroke="white"/></g><g><circle cx="461" cy="157" fill="#8b572a" r="7.5" stroke="white"/></g><g><circle cx="513" cy="151" fill="#8b572a" r="7.5" stroke="white"/></g><g><circle cx="705" cy="153" fill="#8b572a" r="7.5" stroke="white"/></g><g><circle cx="179" cy="336" fill="#8b572a" r="7.5" stroke="white"/></g><g><circle cx="628" cy="198" fill="#8b572a" r="7.5" stroke="white"/></g><g><circle cx="449" cy="14" fill="#8b572a" r="7.5" stroke="white"/></g><g><circle cx="11" cy="487" fill="#7ed321" r="7.5" stroke="white"/></g><g><circle cx="117" cy="368" fill="#417505" r="7.5" stroke="white"/></g><g><circle cx="3" cy="493" fill="#7ed321" r="7.5" stroke="white"/></g><g><circle cx="3" cy="493" fill="#7ed321" r="7.5" stroke="white"/></g><g><circle cx="45" cy="368" fill="#417505" r="7.5" stroke="white"/></g><g><circle cx="50" cy="366" fill="#417505" r="7.5" stroke="white"/></g><g><circle cx="7" cy="480" fill="#7ed321" r="7.5" stroke="white"/></g><g><circle cx="7" cy="480" fill="#7ed321" r="7.5" stroke="white"/></g><g><circle cx="67" cy="332" fill="#417505" r="7.5" stroke="white"/></g><g><circle cx="83" cy="364" fill="#417505" r="7.5" stroke="white"/></g><g><circle cx="5" cy="491" fill="#7ed321" r="7.5" stroke="white"/></g><g><circle cx="18" cy="419" fill="#8b572a" r="7.5" stroke="white"/></g><g><circle cx="11" cy="428" fill="#8b572a" r="7.5" stroke="white"/></g><g><circle cx="179" cy="379" fill="#8b572a" r="7.5" stroke="white"/></g><g><circle cx="79" cy="460" fill="#8b572a" r="7.5" stroke="white"/></g><g><circle cx="77" cy="407" fill="#8b572a" r="7.5" stroke="white"/></g><g><circle cx="11" cy="483" fill="#7ed321" r="7.5" stroke="white"/></g><g><circle cx="117" cy="362" fill="#417505" r="7.5" stroke="white"/></g><g><circle cx="3" cy="484" fill="#7ed321" r="7.5" stroke="white"/></g><g><circle cx="3" cy="493" fill="#7ed321" r="7.5" stroke="white"/></g><g><circle cx="117" cy="368" fill="#417505" r="7.5" stroke="white"/></g><g><circle cx="11" cy="483" fill="#7ed321" r="7.5" stroke="white"/></g><g><circle cx="449" cy="204" fill="#8b572a" r="7.5" stroke="white"/></g><g><circle cx="395" cy="103" fill="#8b572a" r="7.5" stroke="white"/></g><g><circle cx="11" cy="483" fill="#7ed321" r="7.5" stroke="white"/></g><g><circle cx="117" cy="374" fill="#417505" r="7.5" stroke="white"/></g><g><circle cx="3" cy="493" fill="#7ed321" r="7.5" stroke="white"/></g><g><circle cx="3" cy="484" fill="#7ed321" r="7.5" stroke="white"/></g><g><circle cx="117" cy="362" fill="#417505" r="7.5" stroke="white"/></g><g><circle cx="11" cy="483" fill="#7ed321" r="7.5" stroke="white"/></g><g><circle cx="11" cy="483" fill="#7ed321" r="7.5" stroke="white"/></g><g><circle cx="77" cy="358" fill="#417505" r="7.5" stroke="white"/></g><g><circle cx="60" cy="335" fill="#417505" r="7.5" stroke="white"/></g><g><circle cx="11" cy="474" fill="#7ed321" r="7.5" stroke="white"/></g><g><circle cx="11" cy="479" fill="#7ed321" r="7.5" stroke="white"/></g><g><circle cx="60" cy="335" fill="#417505" r="7.5" stroke="white"/></g><g><circle cx="77" cy="347" fill="#417505" r="7.5" stroke="white"/></g><g><circle cx="11" cy="479" fill="#7ed321" r="7.5" stroke="white"/></g><g><circle cx="11" cy="483" fill="#7ed321" r="7.5" stroke="white"/></g><g><circle cx="117" cy="362" fill="#417505" r="7.5" stroke="white"/></g><g><circle cx="3" cy="493" fill="#7ed321" r="7.5" stroke="white"/></g><g><circle cx="3" cy="493" fill="#7ed321" r="7.5" stroke="white"/></g><g><circle cx="45" cy="368" fill="#417505" r="7.5" stroke="white"/></g><g><circle cx="50" cy="366" fill="#417505" r="7.5" stroke="white"/></g><g><circle cx="7" cy="472" fill="#7ed321" r="7.5" stroke="white"/></g><g><circle cx="7" cy="480" fill="#7ed321" r="7.5" stroke="white"/></g><g><circle cx="67" cy="332" fill="#417505" r="7.5" stroke="white"/></g><g><circle cx="77" cy="347" fill="#417505" r="7.5" stroke="white"/></g><g><circle cx="11" cy="479" fill="#7ed321" r="7.5" stroke="white"/></g><g><circle cx="179" cy="394" fill="#8b572a" r="7.5" stroke="white"/></g><g><circle cx="179" cy="429" fill="#8b572a" r="7.5" stroke="white"/></g><g id="labels"><g transform="translate(11,489)"><text x="0" y="0" text-anchor="middle" dominant-baseline="text-before-edge" transform="translate(0,0)"><tspan x="0" y="0" dy="0"/></text></g><g transform="translate(117,362)"><text x="0" y="0" text-anchor="middle" dominant-baseline="text-before-edge" transform="translate(0,0)"><tspan x="0" y="0" dy="0"/></text></g><g transform="translate(3,484)"><text x="0" y="0" text-anchor="middle" dominant-baseline="text-before-edge" transform="translate(0,0)"><tspan x="0" y="0" dy="0"/></text></g><g transform="translate(3,484)"><text x="0" y="0" text-anchor="middle" dominant-baseline="text-before-edge" transform="translate(0,0)"><tspan x="0" y="0" dy="0"/></text></g><g transform="translate(117,379)"><text x="0" y="0" text-anchor="middle" dominant-baseline="text-before-edge" transform="translate(0,0)"><tspan x="0" y="0" dy="0"/></text></g><g transform="translate(11,483)"><text x="0" y="0" text-anchor="middle" dominant-baseline="text-before-edge" transform="translate(0,0)"><tspan x="0" y="0" dy="0"/></text></g><g transform="translate(449,87)"><text x="0" y="0" text-anchor="middle" dominant-baseline="text-before-edge" transform="translate(0,0)"><tspan x="0" y="0" dy="0"/></text></g><g transform="translate(346,299)"><text x="0" y="0" text-anchor="middle" dominant-baseline="text-before-edge" transform="translate(0,0)"><tspan x="0" y="0" dy="0"/></text></g><g transform="translate(38,439)"><text x="0" y="0" text-anchor="middle" dominant-baseline="text-before-edge" transform="translate(0,0)"><tspan x="0" y="0" dy="0"/></text></g><g transform="translate(11,483)"><text x="0" y="0" text-anchor="middle" dominant-baseline="text-before-edge" transform="translate(0,0)"><tspan x="0" y="0" dy="0"/></text></g><g transform="translate(77,358)"><text x="0" y="0" text-anchor="middle" dominant-baseline="text-before-edge" transform="translate(0,0)"><tspan x="0" y="0" dy="0"/></text></g><g transform="translate(60,335)"><text x="0" y="0" text-anchor="middle" dominant-baseline="text-before-edge" transform="translate(0,0)"><tspan x="0" y="0" dy="0"/></text></g><g transform="translate(11,474)"><text x="0" y="0" text-anchor="middle" dominant-baseline="text-before-edge" transform="translate(0,0)"><tspan x="0" y="0" dy="0"/></text></g><g transform="translate(11,479)"><text x="0" y="0" text-anchor="middle" dominant-baseline="text-before-edge" transform="translate(0,0)"><tspan x="0" y="0" dy="0"/></text></g><g transform="translate(60,316)"><text x="0" y="0" text-anchor="middle" dominant-baseline="text-before-edge" transform="translate(0,0)"><tspan x="0" y="0" dy="0"/></text></g><g transform="translate(77,358)"><text x="0" y="0" text-anchor="middle" dominant-baseline="text-before-edge" transform="translate(0,0)"><tspan x="0" y="0" dy="0"/></text></g><g transform="translate(11,479)"><text x="0" y="0" text-anchor="middle" dominant-baseline="text-before-edge" transform="translate(0,0)"><tspan x="0" y="0" dy="0"/></text></g><g transform="translate(396,158)"><text x="0" y="0" text-anchor="middle" dominant-baseline="text-before-edge" transform="translate(0,0)"><tspan x="0" y="0" dy="0"/></text></g><g transform="translate(33,407)"><text x="0" y="0" text-anchor="middle" dominant-baseline="text-before-edge" transform="translate(0,0)"><tspan x="0" y="0" dy="0"/></text></g><g transform="translate(395,329)"><text x="0" y="0" text-anchor="middle" dominant-baseline="text-before-edge" transform="translate(0,0)"><tspan x="0" y="0" dy="0"/></text></g><g transform="translate(11,483)"><text x="0" y="0" text-anchor="middle" dominant-baseline="text-before-edge" transform="translate(0,0)"><tspan x="0" y="0" dy="0"/></text></g><g transform="translate(117,368)"><text x="0" y="0" text-anchor="middle" dominant-baseline="text-before-edge" transform="translate(0,0)"><tspan x="0" y="0" dy="0"/></text></g><g transform="translate(3,493)"><text x="0" y="0" text-anchor="middle" dominant-baseline="text-before-edge" transform="translate(0,0)"><tspan x="0" y="0" dy="0"/></text></g><g transform="translate(3,493)"><text x="0" y="0" text-anchor="middle" dominant-baseline="text-before-edge" transform="translate(0,0)"><tspan x="0" y="0" dy="0"/></text></g><g transform="translate(117,368)"><text x="0" y="0" text-anchor="middle" dominant-baseline="text-before-edge" transform="translate(0,0)"><tspan x="0" y="0" dy="0"/></text></g><g transform="translate(11,483)"><text x="0" y="0" text-anchor="middle" dominant-baseline="text-before-edge" transform="translate(0,0)"><tspan x="0" y="0" dy="0"/></text></g><g transform="translate(14,480)"><text x="0" y="0" text-anchor="middle" dominant-baseline="text-before-edge" transform="translate(0,0)"><tspan x="0" y="0" dy="0"/></text></g><g transform="translate(14,483)"><text x="0" y="0" text-anchor="middle" dominant-baseline="text-before-edge" transform="translate(0,0)"><tspan x="0" y="0" dy="0"/></text></g><g transform="translate(449,141)"><text x="0" y="0" text-anchor="middle" dominant-baseline="text-before-edge" transform="translate(0,0)"><tspan x="0" y="0" dy="0"/></text></g><g transform="translate(97,326)"><text x="0" y="0" text-anchor="middle" dominant-baseline="text-before-edge" transform="translate(0,0)"><tspan x="0" y="0" dy="0"/></text></g><g transform="translate(112,340)"><text x="0" y="0" text-anchor="middle" dominant-baseline="text-before-edge" transform="translate(0,0)"><tspan x="0" y="0" dy="0"/></text></g><g transform="translate(461,157)"><text x="0" y="0" text-anchor="middle" dominant-baseline="text-before-edge" transform="translate(0,0)"><tspan x="0" y="0" dy="0"/></text></g><g transform="translate(513,151)"><text x="0" y="0" text-anchor="middle" dominant-baseline="text-before-edge" transform="translate(0,0)"><tspan x="0" y="0" dy="0"/></text></g><g transform="translate(705,153)"><text x="0" y="0" text-anchor="middle" dominant-baseline="text-before-edge" transform="translate(0,0)"><tspan x="0" y="0" dy="0"/></text></g><g transform="translate(179,336)"><text x="0" y="0" text-anchor="middle" dominant-baseline="text-before-edge" transform="translate(0,0)"><tspan x="0" y="0" dy="0"/></text></g><g transform="translate(628,198)"><text x="0" y="0" text-anchor="middle" dominant-baseline="text-before-edge" transform="translate(0,0)"><tspan x="0" y="0" dy="0"/></text></g><g transform="translate(449,14)"><text x="0" y="0" text-anchor="middle" dominant-baseline="text-before-edge" transform="translate(0,0)"><tspan x="0" y="0" dy="0"/></text></g><g transform="translate(11,487)"><text x="0" y="0" text-anchor="middle" dominant-baseline="text-before-edge" transform="translate(0,0)"><tspan x="0" y="0" dy="0"/></text></g><g transform="translate(117,368)"><text x="0" y="0" text-anchor="middle" dominant-baseline="text-before-edge" transform="translate(0,0)"><tspan x="0" y="0" dy="0"/></text></g><g transform="translate(3,493)"><text x="0" y="0" text-anchor="middle" dominant-baseline="text-before-edge" transform="translate(0,0)"><tspan x="0" y="0" dy="0"/></text></g><g transform="translate(3,493)"><text x="0" y="0" text-anchor="middle" dominant-baseline="text-before-edge" transform="translate(0,0)"><tspan x="0" y="0" dy="0"/></text></g><g transform="translate(45,368)"><text x="0" y="0" text-anchor="middle" dominant-baseline="text-before-edge" transform="translate(0,0)"><tspan x="0" y="0" dy="0"/></text></g><g transform="translate(50,366)"><text x="0" y="0" text-anchor="middle" dominant-baseline="text-before-edge" transform="translate(0,0)"><tspan x="0" y="0" dy="0"/></text></g><g transform="translate(7,480)"><text x="0" y="0" text-anchor="middle" dominant-baseline="text-before-edge" transform="translate(0,0)"><tspan x="0" y="0" dy="0"/></text></g><g transform="translate(7,480)"><text x="0" y="0" text-anchor="middle" dominant-baseline="text-before-edge" transform="translate(0,0)"><tspan x="0" y="0" dy="0"/></text></g><g transform="translate(67,332)"><text x="0" y="0" text-anchor="middle" dominant-baseline="text-before-edge" transform="translate(0,0)"><tspan x="0" y="0" dy="0"/></text></g><g transform="translate(83,364)"><text x="0" y="0" text-anchor="middle" dominant-baseline="text-before-edge" transform="translate(0,0)"><tspan x="0" y="0" dy="0"/></text></g><g transform="translate(5,491)"><text x="0" y="0" text-anchor="middle" dominant-baseline="text-before-edge" transform="translate(0,0)"><tspan x="0" y="0" dy="0"/></text></g><g transform="translate(18,419)"><text x="0" y="0" text-anchor="middle" dominant-baseline="text-before-edge" transform="translate(0,0)"><tspan x="0" y="0" dy="0"/></text></g><g transform="translate(11,428)"><text x="0" y="0" text-anchor="middle" dominant-baseline="text-before-edge" transform="translate(0,0)"><tspan x="0" y="0" dy="0"/></text></g><g transform="translate(179,379)"><text x="0" y="0" text-anchor="middle" dominant-baseline="text-before-edge" transform="translate(0,0)"><tspan x="0" y="0" dy="0"/></text></g><g transform="translate(79,460)"><text x="0" y="0" text-anchor="middle" dominant-baseline="text-before-edge" transform="translate(0,0)"><tspan x="0" y="0" dy="0"/></text></g><g transform="translate(77,407)"><text x="0" y="0" text-anchor="middle" dominant-baseline="text-before-edge" transform="translate(0,0)"><tspan x="0" y="0" dy="0"/></text></g><g transform="translate(11,483)"><text x="0" y="0" text-anchor="middle" dominant-baseline="text-before-edge" transform="translate(0,0)"><tspan x="0" y="0" dy="0"/></text></g><g transform="translate(117,362)"><text x="0" y="0" text-anchor="middle" dominant-baseline="text-before-edge" transform="translate(0,0)"><tspan x="0" y="0" dy="0"/></text></g><g transform="translate(3,484)"><text x="0" y="0" text-anchor="middle" dominant-baseline="text-before-edge" transform="translate(0,0)"><tspan x="0" y="0" dy="0"/></text></g><g transform="translate(3,493)"><text x="0" y="0" text-anchor="middle" dominant-baseline="text-before-edge" transform="translate(0,0)"><tspan x="0" y="0" dy="0"/></text></g><g transform="translate(117,368)"><text x="0" y="0" text-anchor="middle" dominant-baseline="text-before-edge" transform="translate(0,0)"><tspan x="0" y="0" dy="0"/></text></g><g transform="translate(11,483)"><text x="0" y="0" text-anchor="middle" dominant-baseline="text-before-edge" transform="translate(0,0)"><tspan x="0" y="0" dy="0"/></text></g><g transform="translate(449,204)"><text x="0" y="0" text-anchor="middle" dominant-baseline="text-before-edge" transform="translate(0,0)"><tspan x="0" y="0" dy="0"/></text></g><g transform="translate(395,103)"><text x="0" y="0" text-anchor="middle" dominant-baseline="text-before-edge" transform="translate(0,0)"><tspan x="0" y="0" dy="0"/></text></g><g transform="translate(11,483)"><text x="0" y="0" text-anchor="middle" dominant-baseline="text-before-edge" transform="translate(0,0)"><tspan x="0" y="0" dy="0"/></text></g><g transform="translate(117,374)"><text x="0" y="0" text-anchor="middle" dominant-baseline="text-before-edge" transform="translate(0,0)"><tspan x="0" y="0" dy="0"/></text></g><g transform="translate(3,493)"><text x="0" y="0" text-anchor="middle" dominant-baseline="text-before-edge" transform="translate(0,0)"><tspan x="0" y="0" dy="0"/></text></g><g transform="translate(3,484)"><text x="0" y="0" text-anchor="middle" dominant-baseline="text-before-edge" transform="translate(0,0)"><tspan x="0" y="0" dy="0"/></text></g><g transform="translate(117,362)"><text x="0" y="0" text-anchor="middle" dominant-baseline="text-before-edge" transform="translate(0,0)"><tspan x="0" y="0" dy="0"/></text></g><g transform="translate(11,483)"><text x="0" y="0" text-anchor="middle" dominant-baseline="text-before-edge" transform="translate(0,0)"><tspan x="0" y="0" dy="0"/></text></g><g transform="translate(11,483)"><text x="0" y="0" text-anchor="middle" dominant-baseline="text-before-edge" transform="translate(0,0)"><tspan x="0" y="0" dy="0"/></text></g><g transform="translate(77,358)"><text x="0" y="0" text-anchor="middle" dominant-baseline="text-before-edge" transform="translate(0,0)"><tspan x="0" y="0" dy="0"/></text></g><g transform="translate(60,335)"><text x="0" y="0" text-anchor="middle" dominant-baseline="text-before-edge" transform="translate(0,0)"><tspan x="0" y="0" dy="0"/></text></g><g transform="translate(11,474)"><text x="0" y="0" text-anchor="middle" dominant-baseline="text-before-edge" transform="translate(0,0)"><tspan x="0" y="0" dy="0"/></text></g><g transform="translate(11,479)"><text x="0" y="0" text-anchor="middle" dominant-baseline="text-before-edge" transform="translate(0,0)"><tspan x="0" y="0" dy="0"/></text></g><g transform="translate(60,335)"><text x="0" y="0" text-anchor="middle" dominant-baseline="text-before-edge" transform="translate(0,0)"><tspan x="0" y="0" dy="0"/></text></g><g transform="translate(77,347)"><text x="0" y="0" text-anchor="middle" dominant-baseline="text-before-edge" transform="translate(0,0)"><tspan x="0" y="0" dy="0"/></text></g><g transform="translate(11,479)"><text x="0" y="0" text-anchor="middle" dominant-baseline="text-before-edge" transform="translate(0,0)"><tspan x="0" y="0" dy="0"/></text></g><g transform="translate(11,483)"><text x="0" y="0" text-anchor="middle" dominant-baseline="text-before-edge" transform="translate(0,0)"><tspan x="0" y="0" dy="0"/></text></g><g transform="translate(117,362)"><text x="0" y="0" text-anchor="middle" dominant-baseline="text-before-edge" transform="translate(0,0)"><tspan x="0" y="0" dy="0"/></text></g><g transform="translate(3,493)"><text x="0" y="0" text-anchor="middle" dominant-baseline="text-before-edge" transform="translate(0,0)"><tspan x="0" y="0" dy="0"/></text></g><g transform="translate(3,493)"><text x="0" y="0" text-anchor="middle" dominant-baseline="text-before-edge" transform="translate(0,0)"><tspan x="0" y="0" dy="0"/></text></g><g transform="translate(45,368)"><text x="0" y="0" text-anchor="middle" dominant-baseline="text-before-edge" transform="translate(0,0)"><tspan x="0" y="0" dy="0"/></text></g><g transform="translate(50,366)"><text x="0" y="0" text-anchor="middle" dominant-baseline="text-before-edge" transform="translate(0,0)"><tspan x="0" y="0" dy="0"/></text></g><g transform="translate(7,472)"><text x="0" y="0" text-anchor="middle" dominant-baseline="text-before-edge" transform="translate(0,0)"><tspan x="0" y="0" dy="0"/></text></g><g transform="translate(7,480)"><text x="0" y="0" text-anchor="middle" dominant-baseline="text-before-edge" transform="translate(0,0)"><tspan x="0" y="0" dy="0"/></text></g><g transform="translate(67,332)"><text x="0" y="0" text-anchor="middle" dominant-baseline="text-before-edge" transform="translate(0,0)"><tspan x="0" y="0" dy="0"/></text></g><g transform="translate(77,347)"><text x="0" y="0" text-anchor="middle" dominant-baseline="text-before-edge" transform="translate(0,0)"><tspan x="0" y="0" dy="0"/></text></g><g transform="translate(11,479)"><text x="0" y="0" text-anchor="middle" dominant-baseline="text-before-edge" transform="translate(0,0)"><tspan x="0" y="0" dy="0"/></text></g><g transform="translate(179,394)"><text x="0" y="0" text-anchor="middle" dominant-baseline="text-before-edge" transform="translate(0,0)"><tspan x="0" y="0" dy="0"/></text></g><g transform="translate(179,429)"><text x="0" y="0" text-anchor="middle" dominant-baseline="text-before-edge" transform="translate(0,0)"><tspan x="0" y="0" dy="0"/></text></g></g></g></g><text y="4" x="4" style="font-family: Arial, sans-serif; font-size: 12px; fill: black; font-weight: bold; dominant-baseline: hanging;"/></g></g><g id="grid"><rect x="0" y="0" width="805" height="600" fill="none" stroke="#ccc"/></g><clipPath id="serieClipPath"><rect x="-50" y="-30" width="805" height="600"/></clipPath><g id="legend" transform="translate(805,30)"><g transform="translate(5,0)"><g class="legendColor" transform="translate(0,0)"><g class="legendCells" transform="translate(0,16)"><g class="cell" transform="translate(0, 0)"><rect class="swatch" height="15" width="15" style="fill: rgb(139, 87, 42);"/><text class="label" transform="translate( 20, 12.5)" font-family="&quot;Arial&quot;, sans-serif" font-size="10px"><tspan x="0" dy="0em">auto</tspan></text></g><g class="cell" transform="translate(0, 21)"><rect class="swatch" height="15" width="15" style="fill: rgb(126, 211, 33);"/><text class="label" transform="translate( 20, 12.5)" font-family="&quot;Arial&quot;, sans-serif" font-size="10px"><tspan x="0" dy="0em">caminando</tspan></text></g><g class="cell" transform="translate(0, 42)"><rect class="swatch" height="15" width="15" style="fill: rgb(65, 117, 5);"/><text class="label" transform="translate( 20, 12.5)" font-family="&quot;Arial&quot;, sans-serif" font-size="10px"><tspan x="0" dy="0em">subte</tspan></text></g></g><text class="legendTitle" font-family="&quot;Arial&quot;, sans-serif" font-size="12px" font-weight="bold"><tspan x="0" dy="0em">Transporte</tspan></text></g></g></g></svg>